<svg width="800" height="600" viewBox="0 0 800 600" fill="none" xmlns="http://www.w3.org/2000/svg">
<rect width="800" height="600" fill="#EDF0F3"/>
<path fill-rule="evenodd" clip-rule="evenodd" d="M421.524 283.579H416.421V278.476C416.421 277.112 415.309 276 413.945 276H413.869C412.48 276 411.368 277.112 411.368 278.476V283.579H406.291C404.926 283.579 403.815 284.691 403.789 286.055V286.131C403.789 287.52 404.901 288.632 406.291 288.632H411.368V293.709C411.368 295.074 412.48 296.211 413.869 296.185H413.945C415.309 296.185 416.421 295.074 416.421 293.709V288.632H421.524C422.888 288.632 424 287.52 424 286.156V286.055C424 284.691 422.888 283.579 421.524 283.579ZM408.842 293.709V291.158H406.291C404.952 291.158 403.688 290.627 402.728 289.693C401.794 288.733 401.263 287.469 401.263 286.055C401.263 285.145 401.516 284.312 401.945 283.579H381.053C378.274 283.579 376 285.853 376 288.632V318.947C376 321.726 378.274 324 381.053 324H411.368C414.147 324 416.421 321.726 416.421 318.947V298.029C415.663 298.459 414.804 298.737 413.844 298.737C411.091 298.712 408.842 296.463 408.842 293.709ZM383.579 318.947H408.741C409.802 318.947 410.383 317.735 409.726 316.901L402.274 307.604C401.768 306.947 400.783 306.973 400.278 307.629L393.684 316.421L389.642 310.333C389.137 309.625 388.101 309.575 387.571 310.282L382.568 316.926C381.937 317.76 382.543 318.947 383.579 318.947Z" fill="#D0D4D9"/>
</svg>
