<svg width="253" height="40" viewBox="0 0 253 40" fill="none" xmlns="http://www.w3.org/2000/svg">
<path d="M11.0737 31.4947C7.70525 31.4947 5.05262 30.807 3.11578 29.4316C1.17895 28.0281 0.140351 26.0632 0 23.5369H6.73683C6.84911 24.2386 7.2842 24.8421 8.04209 25.3474C8.79998 25.8526 9.86665 26.1053 11.2421 26.1053C12.2245 26.1053 13.0666 25.9649 13.7684 25.6842C14.4982 25.3755 14.8631 24.8842 14.8631 24.2105C14.8631 23.6211 14.5824 23.1439 14.021 22.779C13.4596 22.386 12.4351 22.1193 10.9473 21.979L9.34735 21.8106C6.37192 21.5018 4.18245 20.6877 2.77894 19.3685C1.37544 18.0492 0.673683 16.393 0.673683 14.4C0.673683 12.6878 1.09474 11.2843 1.93684 10.1895C2.77894 9.06672 3.94385 8.22461 5.43157 7.66321C6.91929 7.10181 8.61753 6.82111 10.5263 6.82111C13.6421 6.82111 16.1544 7.50882 18.0631 8.88426C19.9719 10.2316 20.9824 12.1825 21.0947 14.7369H14.3579C14.2456 14.0351 13.8666 13.4457 13.221 12.9685C12.5754 12.4632 11.6491 12.2106 10.4421 12.2106C9.57191 12.2106 8.85612 12.365 8.29472 12.6737C7.76139 12.9825 7.49472 13.4176 7.49472 13.979C7.49472 14.5685 7.74735 15.0035 8.25262 15.2842C8.78595 15.5649 9.62805 15.7755 10.7789 15.9158L12.3789 16.0842C15.3544 16.393 17.6421 17.2211 19.2421 18.5685C20.8701 19.8877 21.6842 21.6281 21.6842 23.7895C21.6842 25.3895 21.2491 26.7649 20.3789 27.9158C19.5368 29.0667 18.3158 29.9509 16.7158 30.5684C15.1438 31.186 13.2631 31.4947 11.0737 31.4947Z" fill="#2F54EB"/>
<path d="M25.4174 40V33.6H30.7647C31.4104 33.6 31.9577 33.5158 32.4068 33.3474C32.856 33.179 33.2209 32.8982 33.5016 32.5053C33.7823 32.1404 33.9928 31.6211 34.1332 30.9474L39.3542 7.49479H46.5963L40.491 32.4211C40.0419 34.3298 39.4103 35.8316 38.5963 36.9263C37.8103 38.0491 36.7156 38.8351 35.3121 39.2842C33.9367 39.7614 32.1402 40 29.9226 40H25.4174ZM32.7858 30.2316V24.3369H37.67V30.2316H32.7858ZM29.249 30.2316L22.47 7.49479H30.1332L36.4911 30.2316H29.249Z" fill="#2F54EB"/>
<path d="M58.5242 31.4947C55.1558 31.4947 52.5032 30.807 50.5664 29.4316C48.6295 28.0281 47.5909 26.0632 47.4506 23.5369H54.1874C54.2997 24.2386 54.7348 24.8421 55.4927 25.3474C56.2506 25.8526 57.3172 26.1053 58.6927 26.1053C59.6751 26.1053 60.5172 25.9649 61.219 25.6842C61.9488 25.3755 62.3137 24.8842 62.3137 24.2105C62.3137 23.6211 62.033 23.1439 61.4716 22.779C60.9102 22.386 59.8856 22.1193 58.3979 21.979L56.7979 21.8106C53.8225 21.5018 51.633 20.6877 50.2295 19.3685C48.826 18.0492 48.1243 16.393 48.1243 14.4C48.1243 12.6878 48.5453 11.2843 49.3874 10.1895C50.2295 9.06672 51.3944 8.22461 52.8821 7.66321C54.3699 7.10181 56.0681 6.82111 57.9769 6.82111C61.0927 6.82111 63.6049 7.50882 65.5137 8.88426C67.4225 10.2316 68.433 12.1825 68.5453 14.7369H61.8084C61.6962 14.0351 61.3172 13.4457 60.6716 12.9685C60.026 12.4632 59.0997 12.2106 57.8927 12.2106C57.0225 12.2106 56.3067 12.365 55.7453 12.6737C55.212 12.9825 54.9453 13.4176 54.9453 13.979C54.9453 14.5685 55.1979 15.0035 55.7032 15.2842C56.2365 15.5649 57.0786 15.7755 58.2295 15.9158L59.8295 16.0842C62.8049 16.393 65.0927 17.2211 66.6926 18.5685C68.3207 19.8877 69.1347 21.6281 69.1347 23.7895C69.1347 25.3895 68.6997 26.7649 67.8295 27.9158C66.9874 29.0667 65.7663 29.9509 64.1663 30.5684C62.5944 31.186 60.7137 31.4947 58.5242 31.4947Z" fill="#2F54EB"/>
<path d="M84.0199 31.0737C81.4936 31.0737 79.4726 30.7649 77.9568 30.1474C76.4691 29.5298 75.3884 28.5053 74.7147 27.0737C74.041 25.6421 73.7041 23.7053 73.7041 21.2632L73.7463 1.43164H80.8199L80.7778 21.4737C80.7778 22.5123 81.0445 23.3123 81.5778 23.8737C82.1392 24.407 82.9392 24.6737 83.9778 24.6737H87.1778V31.0737H84.0199ZM70.3357 13.0527V7.49479H87.1778V13.0527H70.3357Z" fill="#2F54EB"/>
<path d="M102.108 31.579C100.143 31.579 98.4028 31.2421 96.887 30.5684C95.3712 29.8947 94.094 28.9825 93.0554 27.8316C92.0168 26.6807 91.2168 25.3895 90.6554 23.9579C90.1221 22.5263 89.8554 21.0527 89.8554 19.5369V18.6948C89.8554 17.1228 90.1221 15.6211 90.6554 14.1895C91.2168 12.7299 92.0028 11.4386 93.0133 10.3158C94.0519 9.19303 95.3151 8.30882 96.8028 7.66321C98.2905 6.98953 99.9747 6.65268 101.855 6.65268C104.354 6.65268 106.473 7.21409 108.213 8.33689C109.954 9.4597 111.287 10.9474 112.213 12.8C113.14 14.6246 113.603 16.6176 113.603 18.779V21.2211H93.0554V17.0948H109.182L106.529 18.9474C106.529 17.6281 106.347 16.5193 105.982 15.6211C105.645 14.6948 105.126 13.993 104.424 13.5158C103.75 13.0386 102.894 12.8 101.855 12.8C100.845 12.8 99.9607 13.0386 99.2028 13.5158C98.473 13.965 97.9116 14.6667 97.5186 15.6211C97.1256 16.5474 96.9291 17.7263 96.9291 19.1579C96.9291 20.4491 97.1116 21.572 97.4765 22.5263C97.8414 23.4527 98.4028 24.1684 99.1607 24.6737C99.9186 25.179 100.901 25.4316 102.108 25.4316C103.175 25.4316 104.045 25.2491 104.719 24.8842C105.42 24.5193 105.912 24.0281 106.192 23.4105H113.182C112.845 24.9825 112.171 26.386 111.161 27.6211C110.178 28.8562 108.915 29.8246 107.371 30.5263C105.855 31.2281 104.101 31.579 102.108 31.579Z" fill="#2F54EB"/>
<path d="M117.642 30.7369V7.49479H123.705V17.5158H123.368C123.368 15.1018 123.663 13.1088 124.252 11.5369C124.87 9.93689 125.768 8.74391 126.947 7.95795C128.126 7.14391 129.572 6.73689 131.284 6.73689H131.621C133.361 6.73689 134.807 7.14391 135.958 7.95795C137.137 8.74391 138.021 9.93689 138.61 11.5369C139.228 13.1088 139.537 15.1018 139.537 17.5158H137.768C137.768 15.1018 138.063 13.1088 138.652 11.5369C139.27 9.93689 140.168 8.74391 141.347 7.95795C142.526 7.14391 143.972 6.73689 145.684 6.73689H146.021C147.761 6.73689 149.221 7.14391 150.4 7.95795C151.607 8.74391 152.519 9.93689 153.137 11.5369C153.782 13.1088 154.105 15.1018 154.105 17.5158V30.7369H146.442V17.3053C146.442 16.2386 146.147 15.3544 145.558 14.6527C144.996 13.9228 144.182 13.5579 143.116 13.5579C142.049 13.5579 141.207 13.9228 140.589 14.6527C140 15.3544 139.705 16.2667 139.705 17.3895V30.7369H132.042V17.3053C132.042 16.2386 131.747 15.3544 131.158 14.6527C130.596 13.9228 129.782 13.5579 128.716 13.5579C127.649 13.5579 126.807 13.9228 126.189 14.6527C125.6 15.3544 125.305 16.2667 125.305 17.3895V30.7369H117.642Z" fill="#2F54EB"/>
<path d="M159.675 30.7368V8.08419C159.675 5.36139 160.461 3.34034 162.033 2.02105C163.605 0.673683 165.934 0 169.022 0H171.085V5.55788H168.854C168.18 5.55788 167.661 5.74034 167.296 6.10525C166.931 6.47016 166.748 6.98946 166.748 7.66314V30.7368H159.675ZM157.148 13.8105V8.25262H171.254V13.8105H157.148ZM175.085 30.7368V0H182.748V30.7368H175.085ZM172.769 5.55788V0H182.748V5.55788H172.769Z" fill="#00156A"/>
<path d="M199.986 31.5789C197.936 31.5789 196.112 31.2701 194.512 30.6526C192.912 30.035 191.55 29.1789 190.428 28.0842C189.333 26.9894 188.491 25.7263 187.901 24.2947C187.34 22.8631 187.059 21.3333 187.059 19.7052V18.6947C187.059 17.0105 187.354 15.4386 187.943 13.9789C188.561 12.5193 189.431 11.2421 190.554 10.1473C191.677 9.05262 193.038 8.19648 194.638 7.57893C196.238 6.96139 198.021 6.65262 199.986 6.65262C201.979 6.65262 203.761 6.96139 205.333 7.57893C206.933 8.19648 208.294 9.05262 209.417 10.1473C210.54 11.2421 211.396 12.5193 211.986 13.9789C212.603 15.4386 212.912 17.0105 212.912 18.6947V19.7052C212.912 21.3333 212.617 22.8631 212.028 24.2947C211.466 25.7263 210.624 26.9894 209.501 28.0842C208.407 29.1789 207.059 30.035 205.459 30.6526C203.859 31.2701 202.035 31.5789 199.986 31.5789ZM199.986 25.1789C201.164 25.1789 202.133 24.9263 202.891 24.421C203.677 23.9157 204.266 23.214 204.659 22.3157C205.052 21.3894 205.249 20.3508 205.249 19.2C205.249 17.993 205.038 16.9403 204.617 16.0421C204.224 15.1158 203.635 14.3859 202.849 13.8526C202.063 13.3193 201.108 13.0526 199.986 13.0526C198.863 13.0526 197.908 13.3193 197.122 13.8526C196.336 14.3859 195.733 15.1158 195.312 16.0421C194.919 16.9403 194.722 17.993 194.722 19.2C194.722 20.3508 194.919 21.3894 195.312 22.3157C195.705 23.214 196.294 23.9157 197.08 24.421C197.866 24.9263 198.835 25.1789 199.986 25.1789Z" fill="#00156A"/>
<path d="M225.626 30.7368L229.753 8.25262H237.753L242.468 30.7368H236.658L231.774 8.42104H235.31L230.847 30.7368H225.626ZM224.195 30.7368L224.153 24.3368H228.784L228.826 30.7368H224.195ZM220.447 30.7368L214.342 7.49472H221.837L227.479 30.7368H220.447ZM238.721 30.7368L238.763 24.3368H243.395L243.353 30.7368H238.721ZM240.574 30.7368L245.668 7.49472H252.658L247.1 30.7368H240.574Z" fill="#00156A"/>
</svg>
